<?xml version="1.0" encoding="iso-8859-1"?>
<!-- Generator: Adobe Illustrator 16.0.0, SVG Export Plug-In . SVG Version: 6.00 Build 0)  -->
<!DOCTYPE svg PUBLIC "-//W3C//DTD SVG 1.1//EN" "http://www.w3.org/Graphics/SVG/1.1/DTD/svg11.dtd">
<svg version="1.1" id="Capa_1" xmlns="http://www.w3.org/2000/svg" xmlns:xlink="http://www.w3.org/1999/xlink" x="0px" y="0px"
	 width="94.615px" height="94.615px" viewBox="0 0 94.615 94.615" style="enable-background:new 0 0 94.615 94.615;"
	 xml:space="preserve">
<g>
	<path d="M94.477,60.166c-0.03-0.623-0.352-1.197-0.868-1.551c-0.517-0.354-1.168-0.447-1.76-0.248
		c-4.62,1.533-7.951,1.545-10.965,0.03c-3.008-1.557-4.863-3.931-5.672-7.255l15.379-0.001c1.104,0,2-0.896,2-2v-3.668
		c0-1.104-0.896-2-2-2H75.108c0.654-3.378,2.387-5.799,5.291-7.396c2.93-1.603,6.813-1.633,11.257-0.085
		c0.594,0.206,1.252,0.121,1.774-0.229c0.522-0.352,0.85-0.93,0.88-1.559l0.124-2.461c0.048-0.95-0.58-1.802-1.501-2.038
		c-2.742-0.702-5.501-1.059-8.202-1.059c-3.792,0-7.106,0.715-9.856,2.128c-6.164,3.19-8.193,8.667-8.811,12.698l-4.433,0.001
		c0.369-0.494,0.674-1.022,0.915-1.581c1.14-2.699,0.557-6.578-1.369-9.041c-2.646-3.304-7.327-3.749-11.557-3.749l-10.142,0.003
		c-1.104,0-2,0.896-2,2v12.368H27.478l-4.924-13.072c-0.293-0.779-1.039-1.295-1.872-1.295h-2.779c-0.132,0-0.263,0.013-0.39,0.038
		c-0.127-0.025-0.258-0.038-0.39-0.038h-2.618c-0.827,0-1.568,0.509-1.866,1.28l-5.05,13.087H3.181c-1.104,0-2,0.896-2,2v3.668
		c0,1.104,0.896,2,2,2h1.448L0.134,62.792c-0.237,0.615-0.156,1.309,0.216,1.853c0.373,0.543,0.99,0.868,1.649,0.868h3.994
		c0.835,0,1.583-0.52,1.875-1.303l2.695-7.248h13.425l2.482,7.154c0.279,0.806,1.038,1.346,1.89,1.346h4.51c0.003,0,0.007,0,0.01,0
		c1.074-0.002,2.01-0.894,2.01-2c0-0.348-0.088-0.674-0.243-0.956l-4.28-11.364h7.113v12.32c0,1.104,0.896,2,2,2h9.511
		c3.419,0,9.142,0,12.895-4.315c1.995-2.315,2.238-7.039,1.505-9.348c-0.043-0.118-0.118-0.289-0.236-0.546l-0.052-0.111h3.146
		c0.98,5.26,3.502,9.254,7.51,11.884c3.779,2.433,8.335,2.943,11.491,2.943c2.659,0,5.388-0.36,7.89-1.041
		c0.906-0.246,1.52-1.09,1.474-2.028L94.477,60.166z M22.32,51.975H12.269l0.5-1.166h9.15L22.32,51.975z M54.349,41.222
		l-0.022,0.047c-0.642,1.153-1.49,1.813-2.838,2.205H46.05v-8.439l2.348-0.001c1.867,0.046,4.19,0.103,5.515,1.854
		C54.905,38.26,54.79,40.315,54.349,41.222z M46.048,51.142h7.953c0.278,0.242,0.505,0.479,0.684,0.714
		c0.978,1.297,1.028,3.732,0.408,4.986c-0.624,1.306-1.975,2.641-7.259,2.641h-1.786V51.142z M17.465,36.427l2.194,7.047h-4.532
		L17.465,36.427z"/>
</g>
<g>
</g>
<g>
</g>
<g>
</g>
<g>
</g>
<g>
</g>
<g>
</g>
<g>
</g>
<g>
</g>
<g>
</g>
<g>
</g>
<g>
</g>
<g>
</g>
<g>
</g>
<g>
</g>
<g>
</g>
</svg>
