<?xml version="1.0" encoding="iso-8859-1"?>
<!-- Generator: Adobe Illustrator 19.0.0, SVG Export Plug-In . SVG Version: 6.00 Build 0)  -->
<svg version="1.1" id="Capa_1" xmlns="http://www.w3.org/2000/svg" xmlns:xlink="http://www.w3.org/1999/xlink" x="0px" y="0px"
	 viewBox="0 0 512 512" style="enable-background:new 0 0 512 512;" xml:space="preserve">
<circle style="fill:#FFD93B;" cx="256" cy="256" r="256"/>
<path style="fill:#F4C534;" d="M512,256c0,141.44-114.64,256-256,256c-80.48,0-152.32-37.12-199.28-95.28
	c43.92,35.52,99.84,56.72,160.72,56.72c141.36,0,256-114.56,256-256c0-60.88-21.2-116.8-56.72-160.72
	C474.8,103.68,512,175.52,512,256z"/>
<path style="fill:#3E4347;" d="M431.312,323.28c-18.88,79.36-90.08,138.56-175.36,138.56s-156.48-59.2-175.36-138.72
	c-1.44-6.08,4.16-11.36,10.08-9.6c111.04,33.12,221.28,33.76,330.56,0.16C427.312,311.76,432.752,317.2,431.312,323.28z"/>
<path style="fill:#E24B4B;" d="M245.648,394.72c-65.536,0-112.224-19.28-103.136,26.288c0.048,0.24,0.144,0.464,0.192,0.704
	c30.928,25.072,70.288,40.112,113.248,40.112s82.32-15.056,113.248-40.096c0.048-0.256,0.144-0.48,0.192-0.72
	C378.48,375.44,311.2,394.72,245.648,394.72z"/>
<path style="fill:#FFFFFF;" d="M93.232,314.192c9.68,34.72,78.64,61.504,162.4,61.504c83.456,0,152.192-26.592,162.272-61.136
	C310.56,346.88,202.288,346.224,93.232,314.192z"/>
<circle style="fill:#F4C534;" cx="362.8" cy="214.608" r="98.448"/>
<path style="fill:#FFFFFF;" d="M447.072,214.64c-2.592,46.832-42.4,84.768-88.944,84.768c-46.528,0-82.288-37.952-79.696-84.768
	c2.592-46.832,42.56-84.912,89.088-84.912S449.664,167.824,447.072,214.64z"/>
<path style="fill:#3E4347;" d="M402.688,214.576c0.096,22.064-17.872,40.032-39.936,39.936
	c-22.064,0.096-40.048-17.888-39.936-39.952c-0.096-22.064,17.872-40.032,39.936-39.936
	C384.816,174.528,402.784,192.512,402.688,214.576z"/>
<ellipse transform="matrix(-0.7071 -0.7071 0.7071 -0.7071 502.9126 608.1483)" style="fill:#FFFFFF;" cx="377.408" cy="199.918" rx="11.92" ry="7.648"/>
<circle style="fill:#F4C534;" cx="149.216" cy="214.608" r="98.448"/>
<path style="fill:#FFFFFF;" d="M64.944,214.64c2.592,46.832,42.4,84.768,88.944,84.768c46.528,0,82.288-37.952,79.696-84.768
	c-2.592-46.832-42.56-84.912-89.088-84.912C97.952,129.728,62.352,167.824,64.944,214.64z"/>
<path style="fill:#3E4347;" d="M109.312,214.576c-0.096,22.064,17.872,40.032,39.936,39.936
	c22.064,0.096,40.032-17.888,39.936-39.952c0.096-22.064-17.872-40.032-39.936-39.936
	C127.2,174.528,109.216,192.512,109.312,214.576z"/>
<ellipse transform="matrix(-0.7071 -0.7071 0.7071 -0.7071 88.3791 436.5053)" style="fill:#FFFFFF;" cx="134.593" cy="199.949" rx="7.648" ry="11.92"/>
<g>
	<path style="fill:#3E4347;" d="M155.152,72.928c0,0-52.016-7.312-106.624,55.904C48.528,128.832,83.84,15.584,155.152,72.928z"/>
	<path style="fill:#3E4347;" d="M356.848,72.928c0,0,52.016-7.312,106.624,55.904C463.472,128.832,428.16,15.584,356.848,72.928z"/>
</g>
<g>
</g>
<g>
</g>
<g>
</g>
<g>
</g>
<g>
</g>
<g>
</g>
<g>
</g>
<g>
</g>
<g>
</g>
<g>
</g>
<g>
</g>
<g>
</g>
<g>
</g>
<g>
</g>
<g>
</g>
</svg>
