<?xml version="1.0" encoding="iso-8859-1"?>
<!-- Generator: Adobe Illustrator 19.0.0, SVG Export Plug-In . SVG Version: 6.00 Build 0)  -->
<svg version="1.1" id="Capa_1" xmlns="http://www.w3.org/2000/svg" xmlns:xlink="http://www.w3.org/1999/xlink" x="0px" y="0px"
	 viewBox="0 0 512.004 512.004" style="enable-background:new 0 0 512.004 512.004;" xml:space="preserve">
<g>
	<g>
		<path d="M467.036,307.103l-98.073-98.07c-11.527-11.527-25.008-20.219-40.112-25.883c-5.664-15.104-14.356-28.586-25.882-40.113
			l-98.072-98.072c-21.359-21.359-49.758-33.122-79.964-33.122S66.327,23.606,44.967,44.965
			c-21.362,21.359-33.125,49.759-33.125,79.965s11.763,58.607,33.123,79.965l98.072,98.072
			c11.527,11.526,25.009,20.217,40.113,25.882c5.664,15.104,14.356,28.586,25.883,40.113l98.072,98.072
			c21.359,21.359,49.759,33.122,79.965,33.122s58.606-11.763,79.965-33.123C511.129,422.941,511.129,351.196,467.036,307.103z
			 M153.936,292.073l-98.076-98.071c-18.45-18.449-28.61-42.979-28.61-69.071c0-26.091,10.161-50.621,28.61-69.071
			c18.449-18.45,42.98-28.61,69.072-28.61s50.621,10.161,69.071,28.61l98.072,98.071c7.129,7.13,13.005,15.123,17.562,23.872
			c-0.521-0.097-1.046-0.178-1.567-0.267c-0.35-0.06-0.699-0.122-1.05-0.179c-1.363-0.22-2.73-0.419-4.102-0.589
			c-0.129-0.016-0.26-0.028-0.39-0.043c-1.258-0.151-2.519-0.277-3.784-0.386c-0.342-0.029-0.683-0.056-1.026-0.083
			c-1.229-0.094-2.461-0.172-3.695-0.225c-0.171-0.007-0.341-0.02-0.511-0.027c-1.398-0.055-2.8-0.082-4.203-0.085
			c-0.105,0-0.208-0.006-0.313-0.006c-0.184,0-0.37,0.011-0.554,0.012c-1.341,0.007-2.684,0.037-4.029,0.091
			c-0.265,0.01-0.528,0.016-0.793,0.029c-0.137,0.006-0.272,0.008-0.409,0.014c-2.154-2.855-4.51-5.567-7.039-8.096l-96.205-96.206
			c-14.451-14.45-33.664-22.408-54.101-22.408c-20.813,0-40.28,8.215-54.814,23.131c-29.054,29.819-28.409,78.36,1.437,108.208
			l95.48,95.48c2.501,2.501,5.191,4.821,8.013,6.955l-0.016,0.182l3.824,2.54c0.763,0.507,1.534,0.999,2.313,1.477
			c5.403,3.315,11.173,5.922,17.181,7.79c0.053,0.016,0.107,0.036,0.16,0.052c0.71,0.219,1.426,0.421,2.142,0.618
			c0.159,0.044,0.316,0.095,0.476,0.138c0.662,0.179,1.33,0.34,1.998,0.5c0.216,0.052,0.429,0.112,0.646,0.161
			c0.617,0.143,1.24,0.269,1.862,0.396c0.27,0.055,0.537,0.119,0.808,0.172c0.528,0.103,1.06,0.188,1.591,0.279
			c0.369,0.064,0.735,0.136,1.105,0.194c0.425,0.067,0.855,0.119,1.282,0.179c0.478,0.067,0.955,0.142,1.435,0.199
			c0.34,0.041,0.682,0.069,1.023,0.106c0.57,0.062,1.139,0.127,1.711,0.176c0.271,0.023,0.543,0.035,0.814,0.054
			c0.645,0.048,1.289,0.098,1.936,0.129c0.192,0.009,0.385,0.01,0.577,0.018c0.718,0.03,1.436,0.059,2.156,0.068l0.053,0.001
			l7.89-0.034l-0.003-0.257c17.856-1.561,34.416-9.286,47.227-22.097c12.719-12.72,20.387-29.08,22.051-46.762
			c0.15,0.021,0.299,0.041,0.448,0.063c0.638,0.091,1.274,0.193,1.907,0.304c0.235,0.041,0.471,0.08,0.707,0.123
			c0.855,0.16,1.705,0.334,2.55,0.529c0.027,0.006,0.053,0.013,0.08,0.021c0.811,0.189,1.618,0.4,2.42,0.621
			c0.24,0.067,0.48,0.138,0.72,0.207c0.613,0.178,1.224,0.366,1.831,0.563c0.24,0.078,0.481,0.155,0.719,0.235
			c0.751,0.255,1.497,0.521,2.238,0.805c0.064,0.025,0.128,0.046,0.192,0.071c0.805,0.311,1.602,0.644,2.393,0.99
			c0.214,0.093,0.426,0.193,0.639,0.289c0.589,0.266,1.174,0.54,1.755,0.825c0.233,0.114,0.466,0.229,0.697,0.346
			c0.64,0.324,1.275,0.659,1.904,1.007c0.105,0.057,0.211,0.112,0.314,0.17c-2.933,20.927-12.65,40.484-27.662,55.497
			c-16.132,16.132-37.51,26.149-60.199,28.204c-2.933,0.266-5.916,0.402-8.864,0.402c-1.873,0-3.741-0.073-5.603-0.179
			c-8.782-0.499-17.427-2.153-25.767-4.972C177.357,310.698,164.67,302.807,153.936,292.073z M264.932,178.517
			c-21.053,4.592-40.535,15.151-55.9,30.515c-15.364,15.365-25.923,34.847-30.515,55.9l-95.136-95.135
			c-23.918-23.918-24.499-62.75-1.297-86.561c11.609-11.915,27.157-18.476,43.78-18.476c16.322,0,31.666,6.356,43.207,17.897
			L264.932,178.517z M229.275,282.714c1.581-13.593,7.614-26.156,17.448-35.989c9.818-9.818,22.403-15.863,36.003-17.448
			c-1.58,13.597-7.614,26.166-17.449,36.001C255.458,275.096,242.887,281.119,229.275,282.714z M333.484,247.067l95.136,95.137
			c23.918,23.917,24.5,62.748,1.297,86.56c-11.609,11.915-27.157,18.476-43.78,18.476c-16.322,0-31.667-6.356-43.208-17.898
			l-95.861-95.86c21.053-4.592,40.535-15.152,55.9-30.516S328.892,268.121,333.484,247.067z M456.141,456.141
			c-18.45,18.45-42.98,28.61-69.071,28.61s-50.622-10.161-69.072-28.61l-98.072-98.072c-7.13-7.129-13.006-15.121-17.563-23.871
			c0.519,0.096,1.04,0.177,1.56,0.265c0.358,0.061,0.716,0.125,1.075,0.183c1.344,0.216,2.692,0.412,4.044,0.579
			c0.205,0.026,0.411,0.043,0.616,0.068c1.164,0.138,2.331,0.256,3.499,0.356c0.414,0.036,0.828,0.069,1.242,0.101
			c1.104,0.083,2.209,0.151,3.316,0.202c0.286,0.013,0.571,0.033,0.858,0.044c1.343,0.052,2.689,0.077,4.037,0.082
			c0.134,0,0.266,0.008,0.398,0.008c0.001,0,0.001,0,0.002,0c0.786,0,1.575-0.01,2.364-0.027c0.03,0,0.06,0,0.088-0.001
			c1.016-0.022,2.032-0.061,3.048-0.109c0.092-0.004,0.185-0.005,0.278-0.01c2.153,2.855,4.509,5.566,7.038,8.096l96.205,96.205
			c14.451,14.45,33.665,22.409,54.102,22.409c20.813,0,40.28-8.215,54.814-23.131c29.055-29.819,28.41-78.36-1.437-108.208
			l-95.48-95.481c-2.501-2.501-5.191-4.82-8.013-6.954l0.016-0.18l-3.823-2.541c-0.762-0.506-1.533-0.998-2.311-1.476
			c-0.278-0.17-0.563-0.33-0.843-0.497c-0.502-0.3-1.003-0.603-1.512-0.89c-0.408-0.23-0.823-0.446-1.235-0.669
			c-0.388-0.21-0.772-0.427-1.163-0.63c-0.493-0.256-0.992-0.495-1.49-0.74c-0.316-0.155-0.63-0.319-0.948-0.47
			c-0.527-0.25-1.06-0.483-1.592-0.721c-0.296-0.131-0.589-0.272-0.886-0.401c-0.551-0.237-1.108-0.458-1.664-0.682
			c-0.285-0.114-0.565-0.237-0.85-0.348c-0.552-0.215-1.108-0.412-1.664-0.614c-0.296-0.107-0.59-0.223-0.886-0.327
			c-0.554-0.193-1.113-0.37-1.671-0.549c-0.304-0.098-0.605-0.204-0.91-0.299c-0.552-0.17-1.109-0.325-1.665-0.482
			c-0.316-0.09-0.631-0.188-0.948-0.273c-0.522-0.141-1.049-0.266-1.573-0.395c-0.357-0.088-0.712-0.185-1.07-0.268
			c-0.494-0.115-0.992-0.214-1.488-0.318c-0.393-0.083-0.785-0.174-1.179-0.251c-0.466-0.09-0.936-0.166-1.404-0.249
			c-0.429-0.075-0.858-0.158-1.289-0.226c-0.425-0.067-0.855-0.12-1.281-0.18c-0.478-0.068-0.955-0.141-1.435-0.199
			c-0.378-0.046-0.759-0.078-1.138-0.119c-0.532-0.056-1.063-0.118-1.597-0.164c-0.333-0.029-0.668-0.044-1.001-0.069
			c-0.582-0.042-1.165-0.088-1.75-0.117c-0.294-0.014-0.59-0.017-0.884-0.029c-0.596-0.023-1.191-0.049-1.789-0.059l-0.116-0.001
			c-0.002,0-0.004,0-0.006,0c-0.003,0-0.007,0-0.01,0c-0.343-0.005-0.687-0.007-1.031-0.007c-20.444,0-39.657,7.953-54.098,22.394
			c-12.741,12.741-20.411,29.13-22.059,46.76c-0.152-0.021-0.304-0.041-0.456-0.064c-0.629-0.09-1.254-0.19-1.879-0.3
			c-0.244-0.043-0.49-0.083-0.734-0.128c-0.847-0.159-1.691-0.331-2.529-0.525c-0.055-0.012-0.11-0.029-0.165-0.041
			c-0.782-0.184-1.559-0.385-2.333-0.599c-0.252-0.07-0.501-0.144-0.752-0.217c-0.601-0.175-1.198-0.358-1.792-0.552
			c-0.25-0.081-0.499-0.16-0.748-0.245c-0.735-0.25-1.468-0.511-2.193-0.789c-0.077-0.03-0.155-0.055-0.232-0.085
			c-0.8-0.31-1.593-0.641-2.381-0.985c-0.22-0.096-0.439-0.198-0.657-0.297c-0.581-0.262-1.159-0.533-1.732-0.813
			c-0.239-0.117-0.479-0.235-0.717-0.355c-0.63-0.318-1.253-0.649-1.872-0.99c-0.112-0.062-0.226-0.12-0.337-0.183
			c2.933-20.927,12.65-40.484,27.662-55.496c16.132-16.132,37.51-26.149,60.2-28.204c2.935-0.267,5.919-0.402,8.867-0.402
			c2.677,0,5.343,0.108,7.996,0.324c1.429,0.116,2.852,0.269,4.273,0.448c6.489,0.816,12.879,2.275,19.099,4.378
			c14.288,4.828,26.975,12.72,37.709,23.455l98.072,98.072C494.227,356.084,494.226,418.055,456.141,456.141z"/>
	</g>
</g>
<g>
	<g>
		
			<rect x="367.994" y="95.237" transform="matrix(0.7071 -0.7071 0.7071 0.7071 47.0181 319.3929)" width="82.113" height="15.406"/>
	</g>
</g>
<g>
	<g>
		<rect x="286.128" width="15.406" height="82.114"/>
	</g>
</g>
<g>
	<g>
		<rect x="429.89" y="210.472" width="82.114" height="15.406"/>
	</g>
</g>
<g>
	<g>
		
			<rect x="61.874" y="401.332" transform="matrix(0.7071 -0.7071 0.7071 0.7071 -259.0835 192.5866)" width="82.113" height="15.406"/>
	</g>
</g>
<g>
	<g>
		<rect y="286.128" width="82.114" height="15.406"/>
	</g>
</g>
<g>
	<g>
		<rect x="210.472" y="429.89" width="15.406" height="82.114"/>
	</g>
</g>
<g>
</g>
<g>
</g>
<g>
</g>
<g>
</g>
<g>
</g>
<g>
</g>
<g>
</g>
<g>
</g>
<g>
</g>
<g>
</g>
<g>
</g>
<g>
</g>
<g>
</g>
<g>
</g>
<g>
</g>
</svg>
