<?xml version="1.0" encoding="iso-8859-1"?>
<!-- Generator: Adobe Illustrator 16.0.0, SVG Export Plug-In . SVG Version: 6.00 Build 0)  -->
<!DOCTYPE svg PUBLIC "-//W3C//DTD SVG 1.1//EN" "http://www.w3.org/Graphics/SVG/1.1/DTD/svg11.dtd">
<svg version="1.1" id="Capa_1" xmlns="http://www.w3.org/2000/svg" xmlns:xlink="http://www.w3.org/1999/xlink" x="0px" y="0px"
	 width="29.501px" height="29.501px" viewBox="0 0 29.501 29.501" style="enable-background:new 0 0 29.501 29.501;"
	 xml:space="preserve">
<g>
	<path d="M27.408,0.001v0.67H26.9c-0.689,0-1.265,0.141-1.724,0.418c-0.459,0.277-0.793,0.695-0.997,1.252
		c-0.156,0.387-0.236,1.082-0.236,2.084v9.34c0,2.892-0.189,4.978-0.57,6.256c-0.381,1.281-1.309,2.459-2.783,3.535
		c-1.477,1.076-3.486,1.615-6.039,1.615c-2.127,0-3.771-0.285-4.934-0.854c-1.583-0.773-2.701-1.765-3.354-2.974
		c-0.653-1.211-0.979-2.836-0.979-4.879V4.424c0-1.414-0.077-2.293-0.235-2.639C4.893,1.44,4.619,1.166,4.233,0.961
		C3.849,0.756,3.132,0.658,2.093,0.67V0h12.693v0.67h-0.635c-0.955,0-1.609,0.1-1.968,0.301c-0.356,0.199-0.61,0.476-0.763,0.824
		c-0.149,0.352-0.227,1.227-0.227,2.629v12.043c0,2.199,0.166,3.656,0.499,4.371c0.332,0.713,0.88,1.305,1.642,1.775
		c0.762,0.473,1.724,0.709,2.883,0.709c1.33,0,2.466-0.303,3.4-0.898c0.938-0.598,1.639-1.424,2.104-2.475
		c0.467-1.055,0.698-2.887,0.698-5.497V4.424c0-1.1-0.114-1.885-0.346-2.356c-0.229-0.472-0.521-0.798-0.869-0.979
		c-0.545-0.277-1.312-0.418-2.304-0.418v-0.67H27.408L27.408,0.001z M4.25,29.501h21v-1.828h-21V29.501z"/>
</g>
<g>
</g>
<g>
</g>
<g>
</g>
<g>
</g>
<g>
</g>
<g>
</g>
<g>
</g>
<g>
</g>
<g>
</g>
<g>
</g>
<g>
</g>
<g>
</g>
<g>
</g>
<g>
</g>
<g>
</g>
</svg>
